<svg width="125" height="168" viewBox="0 0 125 168" fill="none" xmlns="http://www.w3.org/2000/svg">
<g id="balloonUp2">
<path id="Vector" d="M124.697 167.078L121.48 167.213C121.261 162.013 105.066 149.583 95.0106 144.532C88.0345 141.028 82.645 137.237 78.5335 132.942C71.9871 126.102 69.1523 118.365 70.1079 109.946C72.0904 92.4785 58.0002 70.5042 57.8577 70.2845L60.5592 68.532C61.167 69.4687 75.4211 91.6866 73.3075 110.309C71.9026 122.687 79.6909 133.234 96.4559 141.655C104.356 145.623 124.357 159.012 124.697 167.078Z" fill="#D4D5E0"/>
<path id="Vector_2" d="M76.4685 25.5281C63.0491 3.06858 36.8917 -6.00937 18.0443 5.25189C-0.803154 16.5131 -5.20335 43.8492 8.2161 66.3087C21.2455 88.1154 46.2827 97.3053 64.9785 87.5136C66.0828 89.9487 66.4606 92.6509 66.0666 95.2956C65.1238 99.7543 74.6783 90.1501 74.6783 90.1501C72.6688 88.6132 70.9209 86.7616 69.5022 84.6669C85.9003 72.4477 89.1794 46.8016 76.4685 25.5281Z" fill="#6C63FF"/>
</g>
</svg>
