<svg width="91" height="186" viewBox="0 0 91 186" fill="none" xmlns="http://www.w3.org/2000/svg">
<g id="balloonUp1">
<path id="Vector" d="M2.62982 185.325L0.586304 182.836C4.6092 179.533 4.79977 159.119 2.7876 148.048C1.39145 140.367 1.17913 133.781 2.13812 127.913C3.66501 118.569 8.14131 111.651 15.4429 107.351C30.5902 98.4297 39.672 73.9567 39.7618 73.7107L42.7867 74.815C42.4039 75.864 33.226 100.614 17.0768 110.126C6.34241 116.448 2.60087 129.013 5.95551 147.472C7.53675 156.17 8.86867 180.202 2.62982 185.325Z" fill="#D4D5E0"/>
<path id="Vector_2" d="M86.7121 61.6619C96.5849 37.433 88.1058 11.0754 67.7736 2.79042C47.4413 -5.49455 22.9554 7.43053 13.0826 31.6594C3.49677 55.1841 11.2126 80.7141 30.2796 89.7617C28.9983 92.1085 27.0666 94.0355 24.7168 95.3113C20.5876 97.2396 34.0069 99.0968 34.0069 99.0968C34.0263 96.5671 34.4543 94.057 35.2746 91.6638C54.8991 97.4158 77.3607 84.6114 86.7121 61.6619Z" fill="#6C63FF"/>
</g>
</svg>
